<svg width="20" height="21" viewBox="0 0 20 21" fill="none" xmlns="http://www.w3.org/2000/svg">
<path d="M15.8202 3.00999H2.50016C2.08682 3.00999 1.70016 3.10999 1.34016 3.30999C0.980156 3.50999 0.69349 3.78332 0.480156 4.12999C0.266823 4.47665 0.160156 4.85665 0.160156 5.26999V15.27C0.160156 15.6833 0.26349 16.07 0.470156 16.43C0.676823 16.79 0.956823 17.0767 1.31016 17.29C1.66349 17.5033 2.06016 17.61 2.50016 17.61H15.8202C16.2335 17.61 16.6202 17.5067 16.9802 17.3C17.3402 17.0933 17.6268 16.8133 17.8402 16.46C18.0535 16.1067 18.1602 15.71 18.1602 15.27V5.26999C18.1602 4.85665 18.0535 4.47665 17.8402 4.12999C17.6268 3.78332 17.3402 3.50999 16.9802 3.30999C16.6202 3.10999 16.2335 3.00999 15.8202 3.00999ZM2.50016 4.26999H15.8202C16.1135 4.26999 16.3535 4.36999 16.5402 4.56999C16.7268 4.76999 16.8202 5.00332 16.8202 5.26999V5.76999L9.66016 10.35C9.48682 10.43 9.30682 10.47 9.12016 10.47C8.93349 10.47 8.75349 10.43 8.58016 10.35L1.50016 5.76999V5.26999C1.50016 4.97665 1.59349 4.73665 1.78016 4.54999C1.96682 4.36332 2.20682 4.26999 2.50016 4.26999ZM15.8202 16.35H2.50016C2.22016 16.35 1.98349 16.2467 1.79016 16.04C1.59682 15.8333 1.50016 15.6033 1.50016 15.35V7.26999L8.00016 11.43C8.28016 11.6567 8.66682 11.77 9.16016 11.77C9.65349 11.77 10.0402 11.6567 10.3202 11.43L16.8202 7.26999V15.27C16.8202 15.5633 16.7268 15.8167 16.5402 16.03C16.3535 16.2433 16.1135 16.35 15.8202 16.35Z" fill="#9CA3AF"/>
</svg>
