<svg width="37" height="37" viewBox="0 0 37 37" fill="none" xmlns="http://www.w3.org/2000/svg">
<rect x="0.5" y="0.670044" width="36" height="36" rx="6" fill="white"/>
<g clip-path="url(#clip0_6497_191)">
<path d="M21.4727 19.6L21.8927 16.885H19.2827V15.13C19.2827 14.71 19.3927 14.375 19.6127 14.125C19.8827 13.815 20.2827 13.66 20.8127 13.66H21.9977V11.35L21.3377 11.26C20.8077 11.2 20.3277 11.17 19.8977 11.17C19.1777 11.17 18.5527 11.3125 18.0227 11.5975C17.4927 11.8825 17.0827 12.3 16.7927 12.85C16.5027 13.4 16.3577 14.06 16.3577 14.83V16.885H13.9727V19.6H16.3577V26.17H19.2827V19.6H21.4727Z" fill="#1877F2"/>
</g>
<defs>
<clipPath id="clip0_6497_191">
<rect width="15" height="15" fill="white" transform="matrix(1 0 0 -1 11 26.17)"/>
</clipPath>
</defs>
</svg>
