<svg width="37" height="37" viewBox="0 0 37 37" fill="none" xmlns="http://www.w3.org/2000/svg">
<rect x="0.5" y="0.670044" width="36" height="36" rx="6" fill="white"/>
<g clip-path="url(#clip0_6497_199)">
<path d="M15.0377 24.295H12.3227V15.535H15.0377V24.295ZM13.6727 14.335C13.3927 14.335 13.1302 14.2625 12.8852 14.1175C12.6402 13.9725 12.4477 13.78 12.3077 13.54C12.1677 13.3 12.0977 13.035 12.0977 12.745C12.0977 12.455 12.1677 12.19 12.3077 11.95C12.4477 11.71 12.6377 11.52 12.8777 11.38C13.1177 11.24 13.3827 11.17 13.6727 11.17C13.9627 11.17 14.2277 11.24 14.4677 11.38C14.7077 11.52 14.8977 11.71 15.0377 11.95C15.1777 12.19 15.2477 12.455 15.2477 12.745C15.2477 13.035 15.1777 13.3 15.0377 13.54C14.8977 13.78 14.7052 13.9725 14.4602 14.1175C14.2152 14.2625 13.9527 14.335 13.6727 14.335ZM25.2227 24.295H22.5077V20.035C22.5077 19.575 22.4877 19.225 22.4477 18.985C22.3877 18.595 22.2627 18.295 22.0727 18.085C21.8527 17.835 21.5277 17.71 21.0977 17.71C20.4477 17.71 19.9977 17.94 19.7477 18.4C19.5577 18.75 19.4627 19.27 19.4627 19.96V24.295H16.7477V15.535H19.3577V16.72H19.3877C19.5877 16.34 19.8977 16.02 20.3177 15.76C20.7977 15.46 21.3477 15.31 21.9677 15.31C22.8377 15.31 23.5277 15.495 24.0377 15.865C24.4877 16.195 24.8027 16.69 24.9827 17.35C25.1427 17.9 25.2227 18.61 25.2227 19.48V24.295Z" fill="#0077B5"/>
</g>
<defs>
<clipPath id="clip0_6497_199">
<rect width="15" height="15" fill="white" transform="matrix(1 0 0 -1 11 26.17)"/>
</clipPath>
</defs>
</svg>
