<svg width="37" height="37" viewBox="0 0 37 37" fill="none" xmlns="http://www.w3.org/2000/svg">
<rect x="0.5" y="0.670044" width="36" height="36" rx="6" fill="white"/>
<path d="M18.6682 15.0701C18.0175 15.0701 17.4175 15.2328 16.8682 15.5581C16.3188 15.8834 15.8815 16.3208 15.5562 16.8701C15.2308 17.4194 15.0682 18.0194 15.0682 18.6701C15.0682 19.3208 15.2308 19.9208 15.5562 20.4701C15.8815 21.0194 16.3188 21.4541 16.8682 21.7741C17.4175 22.0941 18.0175 22.2541 18.6682 22.2541C19.3188 22.2541 19.9188 22.0941 20.4682 21.7741C21.0175 21.4541 21.4522 21.0194 21.7722 20.4701C22.0922 19.9208 22.2522 19.3208 22.2522 18.6701C22.2522 18.0194 22.0922 17.4194 21.7722 16.8701C21.4522 16.3208 21.0175 15.8834 20.4682 15.5581C19.9188 15.2328 19.3188 15.0701 18.6682 15.0701ZM18.6682 21.0061C18.2415 21.0061 17.8495 20.9021 17.4922 20.6941C17.1348 20.4861 16.8522 20.2008 16.6442 19.8381C16.4362 19.4754 16.3322 19.0861 16.3322 18.6701C16.3322 18.2541 16.4362 17.8648 16.6442 17.5021C16.8522 17.1394 17.1348 16.8541 17.4922 16.6461C17.8495 16.4381 18.2415 16.3341 18.6682 16.3341C19.0948 16.3341 19.4868 16.4381 19.8442 16.6461C20.2015 16.8541 20.4842 17.1368 20.6922 17.4941C20.9002 17.8514 21.0042 18.2434 21.0042 18.6701C21.0042 19.0968 20.9002 19.4888 20.6922 19.8461C20.4842 20.2034 20.1988 20.4861 19.8362 20.6941C19.4735 20.9021 19.0842 21.0061 18.6682 21.0061ZM23.2442 14.9261C23.2442 15.1608 23.1615 15.3608 22.9962 15.5261C22.8308 15.6914 22.6308 15.7741 22.3962 15.7741C22.1615 15.7741 21.9642 15.6914 21.8042 15.5261C21.6442 15.3608 21.5642 15.1608 21.5642 14.9261C21.5642 14.6914 21.6442 14.4941 21.8042 14.3341C21.9642 14.1741 22.1615 14.0941 22.3962 14.0941C22.6308 14.0941 22.8308 14.1741 22.9962 14.3341C23.1615 14.4941 23.2442 14.6914 23.2442 14.9261ZM25.6122 15.7741C25.5908 15.1661 25.5002 14.6381 25.3402 14.1901C25.1588 13.6781 24.8735 13.2301 24.4842 12.8461C24.0948 12.4621 23.6442 12.1794 23.1322 11.9981C22.6842 11.8381 22.1562 11.7421 21.5482 11.7101C20.9722 11.6781 20.0095 11.6621 18.6602 11.6621C17.3108 11.6621 16.3482 11.6781 15.7722 11.7101C15.1535 11.7421 14.6255 11.8381 14.1882 11.9981C13.6762 12.1794 13.2282 12.4621 12.8442 12.8461C12.4602 13.2301 12.1775 13.6781 11.9962 14.1901C11.8255 14.6381 11.7295 15.1661 11.7082 15.7741C11.6762 16.3501 11.6602 17.3128 11.6602 18.6621C11.6602 20.0114 11.6762 20.9741 11.7082 21.5501C11.7295 22.1581 11.8202 22.6861 11.9802 23.1341C12.1615 23.6461 12.4495 24.0994 12.8442 24.4941C13.2388 24.8888 13.6922 25.1714 14.2042 25.3421C14.6308 25.5021 15.1535 25.5928 15.7722 25.6141C16.3482 25.6568 17.3108 25.6781 18.6602 25.6781C20.0095 25.6781 20.9722 25.6568 21.5482 25.6141C22.1562 25.5928 22.6842 25.5021 23.1322 25.3421C23.6442 25.1608 24.0948 24.8754 24.4842 24.4861C24.8735 24.0968 25.1588 23.6461 25.3402 23.1341C25.5002 22.6861 25.5908 22.1581 25.6122 21.5501C25.6442 20.9741 25.6602 20.0141 25.6602 18.6701C25.6602 17.3261 25.6442 16.3608 25.6122 15.7741ZM24.1242 22.7981C24.0068 23.0968 23.8335 23.3634 23.6042 23.5981C23.3748 23.8328 23.1055 24.0088 22.7962 24.1261C22.4442 24.2648 21.8735 24.3554 21.0842 24.3981C20.6362 24.4194 19.9908 24.4248 19.1482 24.4141H18.1882C17.3455 24.4248 16.7002 24.4194 16.2522 24.3981C15.4522 24.3554 14.8815 24.2648 14.5402 24.1261C14.2308 24.0088 13.9615 23.8354 13.7322 23.6061C13.5028 23.3768 13.3295 23.1074 13.2122 22.7981C13.0735 22.4461 12.9828 21.8754 12.9402 21.0861C12.9188 20.6381 12.9135 19.9928 12.9242 19.1501V18.1901C12.9135 17.3474 12.9188 16.7021 12.9402 16.2541C12.9828 15.4541 13.0735 14.8834 13.2122 14.5421C13.3295 14.2328 13.5028 13.9634 13.7322 13.7341C13.9615 13.5048 14.2308 13.3314 14.5402 13.2141C14.8815 13.0754 15.4468 12.9848 16.2362 12.9421C16.6842 12.9208 17.3348 12.9154 18.1882 12.9261H19.1482C19.9908 12.9154 20.6362 12.9208 21.0842 12.9421C21.8735 12.9848 22.4442 13.0754 22.7962 13.2141C23.1055 13.3314 23.3748 13.5048 23.6042 13.7341C23.8335 13.9634 24.0068 14.2328 24.1242 14.5421C24.2628 14.8834 24.3535 15.4488 24.3962 16.2381C24.4175 16.6861 24.4228 17.3368 24.4122 18.1901V19.1501C24.4228 19.9928 24.4175 20.6381 24.3962 21.0861C24.3535 21.8754 24.2628 22.4461 24.1242 22.7981Z" fill="#FD1D1D"/>
</svg>
