<svg width="32" height="28" viewBox="0 0 32 28" fill="none" xmlns="http://www.w3.org/2000/svg">
<path d="M6.66003 9.408C5.88003 9.408 5.15637 9.60299 4.48903 9.99299C3.8217 10.383 3.29303 10.9117 2.90303 11.579C2.51303 12.2463 2.31803 12.97 2.31803 13.75C2.31803 15.5353 2.82937 17.234 3.85203 18.846C4.68403 20.198 5.84537 21.4633 7.33603 22.642C8.6707 23.734 10.2047 24.696 11.938 25.528L12.068 25.58C13.8534 24.7307 15.448 23.7427 16.852 22.616L16.8 22.642C18.2907 21.4633 19.452 20.198 20.284 18.846C21.3067 17.234 21.818 15.5353 21.818 13.75C21.818 12.97 21.623 12.2463 21.233 11.579C20.843 10.9117 20.3144 10.383 19.647 9.99299C18.9797 9.60299 18.256 9.408 17.476 9.408C16.7827 9.408 16.1284 9.55966 15.513 9.863C14.8977 10.1663 14.3777 10.5823 13.953 11.111C13.5284 11.6397 13.2554 12.2333 13.134 12.892C13.082 13.1347 12.9564 13.3383 12.757 13.503C12.5577 13.6677 12.328 13.75 12.068 13.75C11.808 13.75 11.5784 13.6677 11.379 13.503C11.1797 13.3383 11.054 13.1347 11.002 12.892C10.8807 12.2333 10.6077 11.6397 10.183 11.111C9.75837 10.5823 9.23837 10.1663 8.62303 9.863C8.0077 9.55966 7.35337 9.408 6.66003 9.408ZM12.068 27.842C11.912 27.8247 11.756 27.79 11.6 27.738C11.5134 27.7033 11.366 27.634 11.158 27.53C9.25137 26.6287 7.50937 25.5453 5.93203 24.28L5.98403 24.332C4.3027 23.0147 2.9767 21.576 2.00603 20.016C0.775368 18.04 0.160034 15.9513 0.160034 13.75C0.160034 12.5713 0.450368 11.4837 1.03103 10.487C1.6117 9.49033 2.40037 8.70166 3.39703 8.12099C4.3937 7.54033 5.48137 7.24999 6.66003 7.24999C7.75203 7.24999 8.77037 7.49699 9.71503 7.991C10.6597 8.48499 11.444 9.15666 12.068 10.006V10.032C12.692 9.16533 13.4764 8.48499 14.421 7.991C15.3657 7.49699 16.384 7.24999 17.476 7.24999C18.6547 7.24999 19.7424 7.54033 20.739 8.12099C21.7357 8.70166 22.5244 9.49033 23.105 10.487C23.6857 11.4837 23.976 12.5713 23.976 13.75C23.976 15.9513 23.3607 18.04 22.13 20.016C21.1594 21.576 19.8334 23.0147 18.152 24.332C16.6094 25.5453 14.9367 26.594 13.134 27.478L12.978 27.53C12.562 27.738 12.2587 27.842 12.068 27.842Z" fill="#030712"/>
<rect x="15" width="17" height="17" rx="8.5" fill="#DC2626"/>
<path d="M23.6446 12.1385C23.0598 12.1385 22.5579 11.9905 22.1389 11.6946C21.7222 11.3963 21.4014 10.9666 21.1765 10.4055C20.954 9.84209 20.8427 9.16383 20.8427 8.37074C20.8451 7.57765 20.9575 6.90294 21.1801 6.34659C21.405 5.78788 21.7258 5.36174 22.1424 5.06818C22.5615 4.77462 23.0622 4.62784 23.6446 4.62784C24.227 4.62784 24.7277 4.77462 25.1467 5.06818C25.5657 5.36174 25.8865 5.78788 26.1091 6.34659C26.334 6.9053 26.4464 7.58002 26.4464 8.37074C26.4464 9.16619 26.334 9.84564 26.1091 10.4091C25.8865 10.9702 25.5657 11.3987 25.1467 11.6946C24.73 11.9905 24.2293 12.1385 23.6446 12.1385ZM23.6446 11.027C24.0991 11.027 24.4578 10.8033 24.7206 10.3558C24.9857 9.90601 25.1183 9.24432 25.1183 8.37074C25.1183 7.79309 25.0579 7.30777 24.9372 6.91477C24.8165 6.52178 24.646 6.22585 24.4258 6.02699C24.2057 5.82576 23.9452 5.72514 23.6446 5.72514C23.1924 5.72514 22.8349 5.95005 22.5721 6.39986C22.3093 6.8473 22.1768 7.50426 22.1744 8.37074C22.172 8.95076 22.23 9.43845 22.3484 9.83381C22.4691 10.2292 22.6396 10.5275 22.8598 10.7287C23.0799 10.9276 23.3415 11.027 23.6446 11.027Z" fill="#FEF2F2"/>
</svg>
