<svg width="24" height="21" viewBox="0 0 24 21" fill="none" xmlns="http://www.w3.org/2000/svg">
<path d="M6.5 2.158C5.72 2.158 4.99633 2.353 4.329 2.743C3.66167 3.133 3.133 3.66166 2.743 4.329C2.353 4.99633 2.158 5.72 2.158 6.5C2.158 8.28533 2.66933 9.984 3.692 11.596C4.524 12.948 5.68533 14.2133 7.176 15.392C8.51067 16.484 10.0447 17.446 11.778 18.278L11.908 18.33C13.6933 17.4807 15.288 16.4927 16.692 15.366L16.64 15.392C18.1307 14.2133 19.292 12.948 20.124 11.596C21.1467 9.984 21.658 8.28533 21.658 6.5C21.658 5.72 21.463 4.99633 21.073 4.329C20.683 3.66166 20.1543 3.133 19.487 2.743C18.8197 2.353 18.096 2.158 17.316 2.158C16.6227 2.158 15.9683 2.30967 15.353 2.613C14.7377 2.91633 14.2177 3.33233 13.793 3.861C13.3683 4.38967 13.0953 4.98333 12.974 5.642C12.922 5.88467 12.7963 6.08833 12.597 6.253C12.3977 6.41767 12.168 6.5 11.908 6.5C11.648 6.5 11.4183 6.41767 11.219 6.253C11.0197 6.08833 10.894 5.88467 10.842 5.642C10.7207 4.98333 10.4477 4.38967 10.023 3.861C9.59833 3.33233 9.07833 2.91633 8.463 2.613C7.84767 2.30967 7.19333 2.158 6.5 2.158ZM11.908 20.592C11.752 20.5747 11.596 20.54 11.44 20.488C11.3533 20.4533 11.206 20.384 10.998 20.28C9.09133 19.3787 7.34933 18.2953 5.772 17.03L5.824 17.082C4.14267 15.7647 2.81667 14.326 1.846 12.766C0.615333 10.79 0 8.70133 0 6.5C0 5.32133 0.290333 4.23367 0.871 3.237C1.45167 2.24033 2.24033 1.45167 3.237 0.870998C4.23367 0.290333 5.32133 -1.90735e-06 6.5 -1.90735e-06C7.592 -1.90735e-06 8.61033 0.246998 9.555 0.740999C10.4997 1.235 11.284 1.90667 11.908 2.756V2.782C12.532 1.91533 13.3163 1.235 14.261 0.740999C15.2057 0.246998 16.224 -1.90735e-06 17.316 -1.90735e-06C18.4947 -1.90735e-06 19.5823 0.290333 20.579 0.870998C21.5757 1.45167 22.3643 2.24033 22.945 3.237C23.5257 4.23367 23.816 5.32133 23.816 6.5C23.816 8.70133 23.2007 10.79 21.97 12.766C20.9993 14.326 19.6733 15.7647 17.992 17.082C16.4493 18.2953 14.7767 19.344 12.974 20.228L12.818 20.28C12.402 20.488 12.0987 20.592 11.908 20.592Z" fill="#030712"/>
</svg>
