<svg width="26" height="21" viewBox="0 0 26 21" fill="none" xmlns="http://www.w3.org/2000/svg">
<path d="M22.0842 0.166079H3.43616C2.85749 0.166079 2.31616 0.306078 1.81216 0.586079C1.30816 0.866079 0.906823 1.24874 0.608156 1.73408C0.30949 2.21941 0.160156 2.75141 0.160156 3.33008V17.3301C0.160156 17.9087 0.304823 18.4501 0.594156 18.9541C0.88349 19.4581 1.27549 19.8594 1.77016 20.1581C2.26482 20.4567 2.82016 20.6061 3.43616 20.6061H22.0842C22.6628 20.6061 23.2042 20.4614 23.7082 20.1721C24.2122 19.8827 24.6135 19.4907 24.9122 18.9961C25.2108 18.5014 25.3602 17.9461 25.3602 17.3301V3.33008C25.3602 2.75141 25.2108 2.21941 24.9122 1.73408C24.6135 1.24874 24.2122 0.866079 23.7082 0.586079C23.2042 0.306078 22.6628 0.166079 22.0842 0.166079ZM3.43616 1.93008H22.0842C22.4948 1.93008 22.8308 2.07008 23.0922 2.35008C23.3535 2.63008 23.4842 2.95675 23.4842 3.33008V4.03008L13.4602 10.4421C13.2175 10.5541 12.9655 10.6101 12.7042 10.6101C12.4428 10.6101 12.1908 10.5541 11.9482 10.4421L2.03616 4.03008V3.33008C2.03616 2.91941 2.16682 2.58341 2.42816 2.32208C2.68949 2.06075 3.02549 1.93008 3.43616 1.93008ZM22.0842 18.8421H3.43616C3.04416 18.8421 2.71282 18.6974 2.44216 18.4081C2.17149 18.1187 2.03616 17.7967 2.03616 17.4421V6.13008L11.1362 11.9541C11.5282 12.2714 12.0695 12.4301 12.7602 12.4301C13.4508 12.4301 13.9922 12.2714 14.3842 11.9541L23.4842 6.13008V17.3301C23.4842 17.7407 23.3535 18.0954 23.0922 18.3941C22.8308 18.6927 22.4948 18.8421 22.0842 18.8421Z" fill="#111827"/>
</svg>
