<svg width="24" height="16" viewBox="0 0 24 16" fill="none" xmlns="http://www.w3.org/2000/svg">
<g clip-path="url(#clip0_6497_211)">
<mask id="mask0_6497_211" style="mask-type:luminance" maskUnits="userSpaceOnUse" x="0" y="0" width="24" height="16">
<path d="M24 0.670288H0V15.4703H24V0.670288Z" fill="white"/>
</mask>
<g mask="url(#mask0_6497_211)">
<path d="M7.4 15.4703C11.4869 15.4703 14.8 12.1572 14.8 8.07029C14.8 3.98338 11.4869 0.670288 7.4 0.670288C3.31309 0.670288 0 3.98338 0 8.07029C0 12.1572 3.31309 15.4703 7.4 15.4703Z" fill="#DD3D31"/>
<path d="M16.5992 15.4703C20.6861 15.4703 23.9992 12.1572 23.9992 8.07029C23.9992 3.98338 20.6861 0.670288 16.5992 0.670288C12.5123 0.670288 9.19922 3.98338 9.19922 8.07029C9.19922 12.1572 12.5123 15.4703 16.5992 15.4703Z" fill="#EEB046"/>
<path fill-rule="evenodd" clip-rule="evenodd" d="M11.999 13.9703C15.199 11.4703 15.799 6.77026 13.299 3.57026C12.899 3.07026 12.499 2.67026 11.999 2.27026C8.79892 4.77026 8.19892 9.47026 10.699 12.6703C11.099 13.1703 11.499 13.5703 11.999 13.9703Z" fill="#EF7D2F"/>
</g>
</g>
<defs>
<clipPath id="clip0_6497_211">
<rect width="24" height="15" fill="white" transform="translate(0 0.470093)"/>
</clipPath>
</defs>
</svg>
