<svg width="53" height="16" viewBox="0 0 53 16" fill="none" xmlns="http://www.w3.org/2000/svg">
<mask id="mask0_6497_219" style="mask-type:luminance" maskUnits="userSpaceOnUse" x="0" y="1" width="53" height="15">
<path d="M52.5 1.07031H0V15.0703H52.5V1.07031Z" fill="white"/>
</mask>
<g mask="url(#mask0_6497_219)">
<path d="M6.639 1.18286H2.614C2.339 1.18286 2.1015 1.38285 2.064 1.65785L0.438998 11.9578C0.401498 12.1578 0.563998 12.3453 0.776498 12.3453H2.7015C2.9765 12.3453 3.214 12.1454 3.2515 11.8704L3.689 9.09535C3.7265 8.82035 3.964 8.62036 4.239 8.62036H5.5015C8.1515 8.62036 9.6765 7.34537 10.0765 4.79537C10.2515 3.68287 10.089 2.80786 9.564 2.19536C8.989 1.54536 7.9765 1.18286 6.639 1.18286ZM7.1015 4.95786C6.8765 6.39536 5.7765 6.39536 4.714 6.39536H4.1015L4.5265 3.70786C4.5515 3.54536 4.689 3.42037 4.8515 3.42037H5.1265C5.8515 3.42037 6.539 3.42036 6.889 3.83286C7.114 4.08286 7.1765 4.44536 7.1015 4.95786Z" fill="#283B82"/>
<path d="M18.6523 4.90784H16.7273C16.5648 4.90784 16.4273 5.03285 16.4023 5.19535L16.3148 5.73286L16.1773 5.53284C15.7648 4.93284 14.8273 4.72034 13.9023 4.72034C11.7773 4.72034 9.96476 6.33284 9.60226 8.59534C9.41476 9.72034 9.67726 10.7954 10.3148 11.5579C10.9023 12.2454 11.7398 12.5328 12.7398 12.5328C14.4523 12.5328 15.4023 11.4329 15.4023 11.4329L15.3148 11.9703C15.2773 12.1703 15.4398 12.3579 15.6398 12.3579H17.3773C17.6523 12.3579 17.8898 12.1579 17.9273 11.8829L18.9648 5.29536C19.0148 5.09536 18.8523 4.90784 18.6523 4.90784ZM15.9648 8.65784C15.7773 9.75784 14.9023 10.4954 13.7898 10.4954C13.2273 10.4954 12.7898 10.3203 12.5023 9.97034C12.2148 9.63284 12.1148 9.15785 12.2023 8.62035C12.3773 7.53285 13.2648 6.77035 14.3648 6.77035C14.9148 6.77035 15.3523 6.95786 15.6523 7.29536C15.9273 7.63286 16.0523 8.12034 15.9648 8.65784Z" fill="#283B82"/>
<path d="M28.9013 4.90784H26.9638C26.7763 4.90784 26.6013 4.99534 26.5013 5.15784L23.8388 9.08285L22.7138 5.30785C22.6388 5.07035 22.4263 4.90784 22.1763 4.90784H20.2763C20.0513 4.90784 19.8888 5.13284 19.9638 5.34534L22.0888 11.5953L20.0888 14.4203C19.9263 14.6453 20.0888 14.9453 20.3638 14.9453H22.3013C22.4888 14.9453 22.6513 14.8578 22.7638 14.7078L29.2013 5.42036C29.3263 5.20786 29.1638 4.90784 28.9013 4.90784Z" fill="#283B82"/>
<path d="M35.3031 1.18286H31.2781C31.0031 1.18286 30.7656 1.38285 30.7281 1.65785L29.1031 11.9578C29.0656 12.1578 29.2281 12.3453 29.4281 12.3453H31.5031C31.6906 12.3453 31.8531 12.2078 31.8906 12.0203L32.3531 9.09535C32.3906 8.82035 32.6281 8.62036 32.9031 8.62036H34.1781C36.8281 8.62036 38.3531 7.34537 38.7531 4.79537C38.9281 3.68287 38.7656 2.80786 38.2406 2.19536C37.6656 1.54536 36.6531 1.18286 35.3031 1.18286ZM35.7656 4.95786C35.5406 6.39536 34.4406 6.39536 33.3781 6.39536H32.7781L33.2031 3.70786C33.2281 3.54536 33.3656 3.42037 33.5281 3.42037H33.8031C34.5281 3.42037 35.2156 3.42036 35.5656 3.83286C35.7781 4.08286 35.8406 4.44536 35.7656 4.95786Z" fill="#469BDB"/>
<path d="M47.3124 4.90784H45.3874C45.2249 4.90784 45.0874 5.03285 45.0624 5.19535L44.9749 5.73286L44.8374 5.53284C44.4249 4.93284 43.4874 4.72034 42.5624 4.72034C40.4374 4.72034 38.6249 6.33284 38.2624 8.59534C38.0749 9.72034 38.3374 10.7954 38.9749 11.5579C39.5624 12.2454 40.3999 12.5328 41.3999 12.5328C43.1124 12.5328 44.0624 11.4329 44.0624 11.4329L43.9749 11.9703C43.9374 12.1703 44.0999 12.3579 44.3124 12.3579H46.0499C46.3249 12.3579 46.5624 12.1579 46.5999 11.8829L47.6374 5.29536C47.6749 5.09536 47.5124 4.90784 47.3124 4.90784ZM44.6249 8.65784C44.4374 9.75784 43.5624 10.4954 42.4499 10.4954C41.8874 10.4954 41.4499 10.3203 41.1624 9.97034C40.8749 9.63284 40.7749 9.15785 40.8624 8.62035C41.0374 7.53285 41.9249 6.77035 43.0249 6.77035C43.5749 6.77035 44.0124 6.95786 44.3124 7.29536C44.5999 7.63286 44.7124 8.12034 44.6249 8.65784Z" fill="#469BDB"/>
<path d="M49.5773 1.47031L47.9273 11.9703C47.8898 12.1703 48.0523 12.3578 48.2523 12.3578H49.9148C50.1898 12.3578 50.4273 12.1578 50.4648 11.8828L52.0898 1.58282C52.1273 1.38282 51.9648 1.19532 51.7648 1.19532H49.9023C49.7523 1.18282 49.6148 1.30781 49.5773 1.47031Z" fill="#469BDB"/>
</g>
</svg>
