<svg width="28" height="29" viewBox="0 0 28 29" fill="none" xmlns="http://www.w3.org/2000/svg">
<path d="M22.3434 17.2661C21.13 17.1354 20.122 16.8648 19.3194 16.4541C18.7407 16.2301 18.148 16.1881 17.5414 16.3281C16.9347 16.4681 16.398 16.7434 15.9314 17.1541L14.8674 18.3301C12.5154 16.7994 10.574 14.8581 9.04338 12.5061L10.1074 11.4421C10.5554 10.9941 10.84 10.4668 10.9614 9.86012C11.0827 9.25345 11.0314 8.65145 10.8074 8.05412C10.4714 7.17678 10.238 6.16878 10.1074 5.03012C9.97672 4.26478 9.59872 3.62545 8.97338 3.11212C8.34805 2.59878 7.63405 2.34212 6.83138 2.34212H3.10738C2.52872 2.37945 2.01072 2.56612 1.55338 2.90212C1.09605 3.23812 0.741382 3.66745 0.489382 4.19012C0.237382 4.71278 0.130049 5.26345 0.167382 5.84212C0.354049 7.70878 0.764715 9.53345 1.39938 11.3161C2.03405 13.0988 2.87405 14.7741 3.91938 16.3421C5.78605 19.2914 8.19405 21.6994 11.1434 23.5661C12.73 24.5554 14.41 25.3674 16.1834 26.0021C17.9567 26.6368 19.7767 27.0754 21.6434 27.3181H22.0074C22.3994 27.3181 22.7914 27.2341 23.1834 27.0661C23.5754 26.8981 23.9207 26.6694 24.2194 26.3801C24.518 26.0908 24.7467 25.7501 24.9054 25.3581C25.064 24.9661 25.1434 24.5648 25.1434 24.1541V20.6541C25.1434 19.7954 24.882 19.0488 24.3594 18.4141C23.8367 17.7794 23.1647 17.3968 22.3434 17.2661ZM23.2674 20.5421V24.0421C23.2674 24.4341 23.118 24.7888 22.8194 25.1061C22.4834 25.4048 22.1287 25.5541 21.7554 25.5541H21.6434C19.926 25.3861 18.2554 25.0128 16.6314 24.4341C14.9514 23.8368 13.3927 23.0434 11.9554 22.0541C10.63 21.1954 9.39338 20.1921 8.24538 19.0441C7.09738 17.8961 6.08472 16.6501 5.20738 15.3061C4.27405 13.8501 3.51338 12.3008 2.92538 10.6581C2.33738 9.01545 1.93138 7.33545 1.70738 5.61812C1.76338 5.18878 1.93138 4.82945 2.21138 4.54012C2.49138 4.25078 2.82738 4.10612 3.21938 4.10612H6.83138C7.18605 4.10612 7.50805 4.23212 7.79738 4.48412C8.08672 4.73612 8.23138 5.03012 8.23138 5.36612C8.26872 5.85145 8.36205 6.39278 8.51138 6.99012C8.60472 7.36345 8.75405 7.90478 8.95938 8.61412L9.04338 8.86612C9.15538 9.16478 9.18338 9.44945 9.12738 9.72012C9.07138 9.99078 8.93138 10.2194 8.70738 10.4061L7.41938 11.8061C7.25138 11.9181 7.15338 12.0721 7.12538 12.2681C7.09738 12.4641 7.11138 12.6554 7.16738 12.8421C8.04472 14.3541 9.11338 15.7401 10.3734 17.0001C11.6334 18.2601 13.0194 19.3288 14.5314 20.2061C14.6994 20.3181 14.886 20.3554 15.0914 20.3181C15.2967 20.2808 15.4554 20.1968 15.5674 20.0661L17.1074 18.5541C17.294 18.3674 17.5367 18.2368 17.8354 18.1621C18.134 18.0874 18.3954 18.1061 18.6194 18.2181C19.702 18.6474 20.8687 18.9181 22.1194 19.0301C22.474 19.0861 22.7727 19.2681 23.0154 19.5761C23.258 19.8841 23.342 20.2061 23.2674 20.5421ZM14.8674 3.96612C16.3794 4.11545 17.7514 4.58212 18.9834 5.36612C20.2154 6.15012 21.2234 7.15812 22.0074 8.39012C22.7914 9.62212 23.258 10.9941 23.4074 12.5061C23.4074 12.7301 23.496 12.9214 23.6734 13.0801C23.8507 13.2388 24.0327 13.3181 24.2194 13.3181H24.3314C24.5554 13.3181 24.7467 13.2201 24.9054 13.0241C25.064 12.8281 25.1434 12.6088 25.1434 12.3661C24.9567 10.6114 24.3874 8.99678 23.4354 7.52212C22.5207 6.08478 21.3307 4.90878 19.8654 3.99412C18.4 3.07945 16.7807 2.52878 15.0074 2.34212C14.7647 2.34212 14.5454 2.42145 14.3494 2.58012C14.1534 2.73878 14.0554 2.92078 14.0554 3.12612C14.0554 3.33145 14.1347 3.52278 14.2934 3.70012C14.452 3.87745 14.6434 3.96612 14.8674 3.96612ZM14.0554 7.71812C13.9994 7.94212 14.046 8.15678 14.1954 8.36212C14.3447 8.56745 14.5314 8.69812 14.7554 8.75412C15.726 8.94078 16.5707 9.39812 17.2894 10.1261C18.008 10.8541 18.4887 11.7221 18.7314 12.7301C18.7874 12.9541 18.89 13.1268 19.0394 13.2481C19.1887 13.3694 19.3567 13.4301 19.5434 13.4301H19.6554C19.898 13.3741 20.0894 13.2434 20.2294 13.0381C20.3694 12.8328 20.4114 12.6088 20.3554 12.3661C20.1314 11.0408 19.5387 9.89278 18.5774 8.92212C17.616 7.95145 16.4634 7.31678 15.1194 7.01812C14.8767 6.96212 14.6527 6.99478 14.4474 7.11612C14.242 7.23745 14.1114 7.43812 14.0554 7.71812Z" fill="#111827"/>
</svg>
