<svg width="32" height="27" viewBox="0 0 32 27" fill="none" xmlns="http://www.w3.org/2000/svg">
<path d="M22.182 7.25H1.07003C0.810034 7.28467 0.593368 7.406 0.420034 7.614C0.246701 7.822 0.160034 8.056 0.160034 8.316C0.160034 8.576 0.246701 8.81433 0.420034 9.031C0.593368 9.24767 0.810034 9.37333 1.07003 9.408H5.25603L4.50203 19.002V19.184C4.50203 19.7733 4.71437 20.2803 5.13903 20.705C5.5637 21.1297 6.0707 21.342 6.66003 21.342H19.946C20.466 21.342 20.921 21.1817 21.311 20.861C21.701 20.5403 21.948 20.146 22.052 19.678L24.288 9.902C24.3227 9.694 24.34 9.52933 24.34 9.408C24.34 8.80133 24.132 8.29 23.716 7.874C23.3 7.458 22.7887 7.25 22.182 7.25ZM19.946 19.158H6.66003L7.41403 9.408H22.182L19.946 19.158ZM8.66203 26.75C9.2687 26.75 9.78437 26.5377 10.209 26.113C10.6337 25.6883 10.846 25.1727 10.846 24.566C10.846 23.9593 10.6337 23.448 10.209 23.032C9.78437 22.616 9.2687 22.408 8.66203 22.408C8.0727 22.408 7.5657 22.616 7.14103 23.032C6.71637 23.448 6.50403 23.9593 6.50403 24.566C6.50403 25.1727 6.71637 25.6883 7.14103 26.113C7.5657 26.5377 8.0727 26.75 8.66203 26.75ZM18.412 26.75C19.0187 26.75 19.5344 26.5377 19.959 26.113C20.3837 25.6883 20.596 25.1727 20.596 24.566C20.596 23.9593 20.3837 23.448 19.959 23.032C19.5344 22.616 19.0187 22.408 18.412 22.408C17.8227 22.408 17.3157 22.616 16.891 23.032C16.4664 23.448 16.254 23.9593 16.254 24.566C16.254 25.1727 16.4664 25.6883 16.891 26.113C17.3157 26.5377 17.8227 26.75 18.412 26.75Z" fill="#030712"/>
<rect x="15" width="17" height="17" rx="8.5" fill="#DC2626"/>
<path d="M23.6446 12.1385C23.0598 12.1385 22.5579 11.9905 22.1389 11.6946C21.7222 11.3963 21.4014 10.9666 21.1765 10.4055C20.954 9.84209 20.8427 9.16383 20.8427 8.37074C20.8451 7.57765 20.9575 6.90294 21.1801 6.34659C21.405 5.78788 21.7258 5.36174 22.1424 5.06818C22.5615 4.77462 23.0622 4.62784 23.6446 4.62784C24.227 4.62784 24.7277 4.77462 25.1467 5.06818C25.5657 5.36174 25.8865 5.78788 26.1091 6.34659C26.334 6.9053 26.4464 7.58002 26.4464 8.37074C26.4464 9.16619 26.334 9.84564 26.1091 10.4091C25.8865 10.9702 25.5657 11.3987 25.1467 11.6946C24.73 11.9905 24.2293 12.1385 23.6446 12.1385ZM23.6446 11.027C24.0991 11.027 24.4578 10.8033 24.7206 10.3558C24.9857 9.90601 25.1183 9.24432 25.1183 8.37074C25.1183 7.79309 25.0579 7.30777 24.9372 6.91477C24.8165 6.52178 24.646 6.22585 24.4258 6.02699C24.2057 5.82576 23.9452 5.72514 23.6446 5.72514C23.1924 5.72514 22.8349 5.95005 22.5721 6.39986C22.3093 6.8473 22.1768 7.50426 22.1744 8.37074C22.172 8.95076 22.23 9.43845 22.3484 9.83381C22.4691 10.2292 22.6396 10.5275 22.8598 10.7287C23.0799 10.9276 23.3415 11.027 23.6446 11.027Z" fill="#FEF2F2"/>
</svg>
