<svg width="41" height="16" viewBox="0 0 41 16" fill="none" xmlns="http://www.w3.org/2000/svg">
<mask id="mask0_6497_230" style="mask-type:luminance" maskUnits="userSpaceOnUse" x="0" y="1" width="41" height="15">
<path d="M40.5 1.07031H0.5V15.0703H40.5V1.07031Z" fill="white"/>
</mask>
<g mask="url(#mask0_6497_230)">
<path d="M29.3 4.47026C30.2 4.47026 30.9 3.77026 30.9 2.87026C30.9 1.97026 30.2 1.27026 29.3 1.27026C28.4 1.27026 27.7 1.97026 27.7 2.87026C27.6 3.77026 28.3 4.47026 29.3 4.47026C29.3 4.57026 29.3 4.57026 29.3 4.47026ZM16.7 5.37026C16.6 5.57026 16.1 7.07026 14.8 8.67026V1.97026L11.4 2.67026V14.7703H14.8V11.0703C15.8 12.5703 16.3 14.7703 16.3 14.7703H20.4C20 13.0703 18.2 9.97026 18.2 9.97026C19.3 8.57026 20.1 7.07026 20.6 5.47026L16.7 5.37026ZM25.7 5.27026C22.6 5.37026 21.1 6.77026 21.1 9.47026V14.7703H24.5V10.4703C24.5 8.87026 24.7 8.17026 26.7 8.07026V5.37026C26.3 5.27026 25.7 5.27026 25.7 5.27026ZM5.6 6.77026C5.2 6.77026 4.2 6.67026 4.2 5.77026C4.2 4.67026 5.6 4.67026 6.1 4.67026C7 4.67026 8.2 4.97026 9.1 5.17026C9.4 5.27026 9.7 5.37026 10 5.47026V2.67026H9.9C8.9 2.27026 7.7 1.97026 5.5 1.97026C1.8 1.97026 0.5 4.17026 0.5 6.07026C0.5 7.17026 1 9.67026 5.3 9.97026C5.7 9.97026 6.6 10.0703 6.6 10.9703C6.6 11.6703 5.8 12.1703 4.5 12.1703C3 12.1703 1.6 11.7703 0.8 11.4703V14.4703C2.1 14.7703 3.5 14.9703 5.2 14.9703C8.9 14.9703 10.5 12.8703 10.5 10.8703C10.5 8.47026 8.7 6.97026 5.6 6.77026ZM27.6 14.7703H30.9V5.37026H27.6V14.7703ZM37.2 2.57026V14.7703H40.5V1.97026L37.2 2.57026ZM32.3 2.57026L35.6 1.97026V14.7703H32.3V2.57026Z" fill="#862565"/>
</g>
</svg>
