<svg width="36" height="14" viewBox="0 0 36 14" fill="none" xmlns="http://www.w3.org/2000/svg">
<mask id="mask0_6497_205" style="mask-type:luminance" maskUnits="userSpaceOnUse" x="0" y="1" width="36" height="13">
<path d="M36 1.07031H0V13.0703H36V1.07031Z" fill="white"/>
</mask>
<g mask="url(#mask0_6497_205)">
<path d="M31.6008 5.37029L32.2008 8.57029H29.8008L31.0008 5.47029L31.2008 4.87029L31.3008 4.37029C31.3008 4.47029 31.6008 5.37029 31.6008 5.37029ZM8.90078 12.4703L13.3008 1.57029H10.3008L7.60078 9.07029L7.30078 7.47029L6.30078 2.47029C6.20078 1.87029 5.70078 1.47029 4.90078 1.47029H0.400781L0.300781 1.67029C1.50078 1.87029 2.40078 2.27029 3.30078 2.87029L5.90078 12.5703H9.00078L8.90078 12.4703ZM15.6008 12.4703L17.4008 1.57029H14.6008L12.8008 12.6703H15.6008V12.4703ZM25.7008 8.97029C25.7008 7.77029 24.9008 6.77029 23.3008 5.87029C22.1008 5.37029 21.5008 4.97029 21.5008 4.57029C21.5008 3.97029 22.1008 3.67029 23.3008 3.67029C24.0008 3.67029 24.7008 3.67029 25.3008 4.17029H25.7008L26.0008 1.67029C25.1008 1.27029 24.3008 1.17029 23.4008 1.17029C22.5008 1.17029 21.7008 1.37029 21.0008 1.67029C20.3008 1.97029 19.7008 2.37029 19.2008 2.97029C18.8008 3.57029 18.6008 4.17029 18.6008 4.87029C18.6008 6.07029 19.4008 7.07029 21.2008 7.97029C22.1008 8.47029 22.6008 8.87028 22.6008 9.27028C22.6008 9.97028 22.0008 10.4703 20.9008 10.4703C20.0008 10.4703 19.0008 10.2703 18.2008 9.87029L17.8008 9.67029L17.3008 12.0703C18.3008 12.4703 19.4008 12.7703 20.5008 12.7703C21.8008 12.8703 23.0008 12.4703 24.0008 11.8703C25.2008 11.0703 25.7008 10.0703 25.7008 8.97029ZM35.7008 12.4703L33.4008 1.57029H31.2008C30.5008 1.57029 30.0008 1.77029 29.8008 2.47029L25.5008 12.6703H28.5008L29.0008 11.0703H32.8008L33.2008 12.7703H35.8008V12.4703H35.7008Z" fill="url(#paint0_linear_6497_205)"/>
</g>
<defs>
<linearGradient id="paint0_linear_6497_205" x1="1.58268" y1="6.97869" x2="35.2457" y2="6.97869" gradientUnits="userSpaceOnUse">
<stop stop-color="#2C3572"/>
<stop offset="1" stop-color="#3C62AB"/>
</linearGradient>
</defs>
</svg>
